Coordinates
version=1
nRows=14
nColumns=40
inDegrees=yes

Units are S.I. units (second, meters, Newtons, ...)
If the header above contains a line with 'inDegrees', this indicates whether rotational values are in degrees (yes) or radians (no).

endheader
time	pelvis_tilt	pelvis_list	pelvis_rotation	pelvis_tx	pelvis_ty	pelvis_tz	hip_flexion_r	hip_adduction_r	hip_rotation_r	knee_angle_r	knee_angle_r_beta	ankle_angle_r	subtalar_angle_r	mtp_angle_r	hip_flexion_l	hip_adduction_l	hip_rotation_l	knee_angle_l	knee_angle_l_beta	ankle_angle_l	subtalar_angle_l	mtp_angle_l	lumbar_extension	lumbar_bending	lumbar_rotation	arm_flex_r	arm_add_r	arm_rot_r	elbow_flex_r	pro_sup_r	wrist_flex_r	wrist_dev_r	arm_flex_l	arm_add_l	arm_rot_l	elbow_flex_l	pro_sup_l	wrist_flex_l	wrist_dev_l
      3.40000000	      3.94133173	     -5.53799834	     -0.78202544	      0.92872804	      1.07858749	     -0.45522411	      3.21179589	      8.99960002	     -1.41061340	     15.87489154	      0.27706913	      4.12027944	      0.00000000	      0.00000000	     16.98983575	    -12.66130517	     -3.44726204	     65.75095416	      1.14757064	     -2.46452394	      0.00000000	      0.00000000	    -14.48331919	      4.16031996	      1.77782673	    -12.64081365	     -9.97324483	    -20.97987994	     61.49078555	     80.29461326	      0.00000000	      0.00000000	     -4.67251533	     -4.89917715	     -9.85304578	     43.02701799	     81.17124929	      0.00000000	      0.00000000
      3.40833300	      3.75089609	     -5.38219838	     -0.97236067	      0.92774235	      1.07951226	     -0.45465019	      2.54226452	      8.84146972	     -1.46051278	     15.37913165	      0.26841648	      4.21880120	      0.00000000	      0.00000000	     18.23888649	    -12.55411124	     -3.68148252	     64.89442178	      1.13262133	     -1.81224344	      0.00000000	      0.00000000	    -14.37551777	      3.83469491	      2.15292890	    -12.38348410	    -10.18358588	    -20.83436015	     62.32102818	     80.19715384	      0.00000000	      0.00000000	     -5.03274491	     -4.91977823	    -10.07135055	     42.93435537	     81.11791318	      0.00000000	      0.00000000
      3.41666700	      3.60670635	     -5.28501345	     -1.12839110	      0.92691869	      1.08031853	     -0.45427324	      1.78286392	      8.74500547	     -1.26807412	     14.82830410	      0.25880273	      4.30387927	      0.00000000	      0.00000000	     19.35090169	    -12.48118973	     -3.88453783	     63.84550974	      1.11431436	     -1.10742328	      0.00000000	      0.00000000	    -14.27494892	      3.60781141	      2.52057173	    -12.20462410	    -10.43451396	    -20.64899531	     63.26715461	     80.10323848	      0.00000000	      0.00000000	     -5.43624536	     -4.89950547	    -10.33342420	     42.90076653	     81.06429726	      0.00000000	      0.00000000
      3.42500000	      3.85604763	     -5.22860276	     -1.35563759	      0.92621281	      1.08151376	     -0.45386951	      0.28396999	      8.73600615	     -0.44763220	     13.68156322	      0.23878832	      4.10232122	      0.00000000	      0.00000000	     19.88631255	    -12.49400571	     -4.27298379	     62.61051764	      1.09275968	     -0.30353262	      0.00000000	      0.00000000	    -14.69576354	      3.37816876	      2.97516196	    -12.00998157	    -10.79223422	    -20.27816917	     64.40713662	     79.86154769	      0.00000000	      0.00000000	     -5.81738695	     -4.76348893	    -10.97433941	     43.09786028	     81.25944347	      0.00000000	      0.00000000
      3.43333300	      3.89424777	     -5.06088542	     -1.55233765	      0.92547060	      1.08222462	     -0.45364016	     -0.75463099	      8.55750901	      0.10872789	     12.99043273	      0.22672582	      4.20761618	      0.00000000	      0.00000000	     20.59944399	    -12.33436894	     -4.61608226	     61.17771499	      1.06775256	      0.18622051	      0.00000000	      0.00000000	    -14.82031699	      3.07121862	      3.32581859	    -11.81231161	    -11.10511508	    -19.94710712	     65.37115775	     79.71673136	      0.00000000	      0.00000000	     -6.21983571	     -4.71148332	    -11.34624745	     43.16291667	     81.35540136	      0.00000000	      0.00000000
      3.44166700	      3.75087127	     -4.84570065	     -1.72340500	      0.92458057	      1.08252496	     -0.45357336	     -1.50714672	      8.30607641	      0.49177115	     12.44618652	      0.21722693	      4.39710446	      0.00000000	      0.00000000	     21.50045887	    -12.05406651	     -4.84044602	     59.63116586	      1.04076018	      0.47421315	      0.00000000	      0.00000000	    -14.73880961	      2.74908818	      3.63227966	    -11.63137966	    -11.40502957	    -19.69205513	     66.33633385	     79.64644261	      0.00000000	      0.00000000	     -6.54813843	     -4.68023829	    -11.65019941	     43.06901287	     81.29100790	      0.00000000	      0.00000000
      3.45000000	      3.77693191	     -4.66003603	     -1.97426123	      0.92358435	      1.08303274	     -0.45338752	     -2.52743209	      8.08152270	      1.01634657	     11.71675761	      0.20449600	      4.49003409	      0.00000000	      0.00000000	     22.07234551	    -11.85406310	     -5.22345439	     57.83039426	      1.00933079	      0.57934600	      0.00000000	      0.00000000	    -14.88916494	      2.43485635	      4.00771504	    -11.36459246	    -11.70968895	    -19.44483915	     67.23521710	     79.57939843	      0.00000000	      0.00000000	     -6.76396415	     -4.59739821	    -12.19600354	     42.84486999	     81.21759165	      0.00000000	      0.00000000
      3.45833300	      3.70804776	     -4.59531942	     -2.16927052	      0.92241449	      1.08325017	     -0.45322512	     -3.33831975	      7.98585274	      1.25583845	     11.16812250	      0.19492051	      4.57842127	      0.00000000	      0.00000000	     22.73633543	    -11.77159626	     -5.52395169	     55.93060576	      0.97617322	      0.58432611	      0.00000000	      0.00000000	    -14.94229961	      2.27333709	      4.33017862	    -11.03487830	    -12.00739340	    -19.26589869	     67.99996822	     79.51116639	      0.00000000	      0.00000000	     -6.96234199	     -4.55023808	    -12.64483075	     42.62904355	     81.11677462	      0.00000000	      0.00000000
      3.46666700	      3.90677644	     -4.49424732	     -2.42075184	      0.92123751	      1.08379902	     -0.45300568	     -4.59726922	      7.84002894	      1.74358427	     10.30506793	      0.17985736	      4.52343709	      0.00000000	      0.00000000	     22.93343742	    -11.68509930	     -6.01003877	     53.76449102	      0.93836739	      0.54562597	      0.00000000	      0.00000000	    -15.32739538	      2.03883672	      4.64590199	    -10.60654584	    -12.34114311	    -18.99324609	     68.76459090	     79.41261508	      0.00000000	      0.00000000	     -7.10357112	     -4.44570866	    -13.38353050	     42.36353513	     81.02001656	      0.00000000	      0.00000000
      3.47500000	      3.99267132	     -4.47549117	     -2.56993481	      0.92005584	      1.08398467	     -0.45295426	     -5.66944138	      7.78414948	      2.04358177	      9.56503139	      0.16694129	      4.49439664	      0.00000000	      0.00000000	     23.23916615	    -11.65028103	     -6.40112100	     51.51726755	      0.89914594	      0.55532961	      0.00000000	      0.00000000	    -15.58369479	      1.92920088	      4.85422921	    -10.18324649	    -12.70649791	    -18.65968999	     69.46924167	     79.28561500	      0.00000000	      0.00000000	     -7.33838763	     -4.35406641	    -13.90181920	     42.31042986	     80.96026624	      0.00000000	      0.00000000
      3.48333300	      3.70970341	     -4.68352852	     -2.62167213	      0.91889775	      1.08329119	     -0.45306523	     -6.10460942	      7.98137003	      2.01013342	      9.32716719	      0.16278978	      4.68967023	      0.00000000	      0.00000000	     24.03756885	    -11.82227877	     -6.56032043	     49.36688985	      0.86161477	      0.61424658	      0.00000000	      0.00000000	    -15.38448933	      2.13390912	      5.02209513	     -9.85670583	    -13.04171367	    -18.53746865	     70.11709917	     79.21168746	      0.00000000	      0.00000000	     -7.67718300	     -4.31444459	    -14.00338808	     42.28054889	     80.86076070	      0.00000000	      0.00000000
      3.49166700	      3.95019043	     -4.36440707	     -2.79864557	      0.91809017	      1.08347265	     -0.45336232	     -7.55261421	      7.52602739	      2.62271804	      8.19730724	      0.14307000	      4.60024360	      0.00000000	      0.00000000	     23.84291141	    -11.39280530	     -7.16430823	     46.63453941	      0.81392626	      0.53536283	      0.00000000	      0.00000000	    -15.79112251	      1.73118412	      5.13861618	     -9.50945115	    -13.46067441	    -17.92368548	     70.98128518	     79.11612675	      0.00000000	      0.00000000	     -7.89545284	     -4.23359920	    -14.54994538	     42.12648006	     80.79252439	      0.00000000	      0.00000000
      3.50000000	      3.82313713	     -4.38427862	     -2.86109085	      0.91724228	      1.08282052	     -0.45386358	     -8.38300567	      7.45073788	      2.89932481	      7.51948329	      0.13123974	      4.55756676	      0.00000000	      0.00000000	     24.16341712	    -11.22813413	     -7.32342695	     44.01131191	      0.76814230	      0.52127251	      0.00000000	      0.00000000	    -15.77744446	      1.76403128	      5.25422887	     -9.22839987	    -13.88763977	    -17.57032181	     71.67029348	     79.02250578	      0.00000000	      0.00000000	     -8.21374260	     -4.14431922	    -14.81805614	     42.13642136	     80.72652162	      0.00000000	      0.00000000
      3.50833300	      3.50503744	     -4.71694465	     -2.88885836	      0.91643273	      1.08159116	     -0.45426710	     -8.85274437	      7.74391053	      2.83391337	      7.19761480	      0.12562208	      4.73342172	      0.00000000	      0.00000000	     24.80015664	    -11.48221704	     -7.55773417	     41.61518534	      0.72632200	      0.55584526	      0.00000000	      0.00000000	    -15.51962734	      2.17419153	      5.35587555	     -8.89198228	    -14.25547058	    -17.47745892	     72.21415945	     78.94255986	      0.00000000	      0.00000000	     -8.58522131	     -4.07243925	    -14.89696134	     42.11627815	     80.63052453	      0.00000000	      0.00000000
